<svg xmlns="http://www.w3.org/2000/svg" width="120" height="22.825" viewBox="0 0 120 22.825"><defs><style>.a{fill:#4088e6;}.b{fill:#323e48;}.c{fill:#fff;}</style></defs><g transform="translate(69.376 5.128)"><path class="a" d="M243.831,17.57h3.012q.051.01.051.051v5.323a3.152,3.152,0,0,0,.59,2.176,2.673,2.673,0,0,0,2.091,1.046h.121a2.709,2.709,0,0,0,2.483-1.66,3.1,3.1,0,0,0,.2-1.022V17.621q.01-.051.051-.051h3.036q.051.01.051.051v5.816A5.858,5.858,0,0,1,249.72,29.3h-.148a5.824,5.824,0,0,1-5.792-5.62V17.621Q243.79,17.57,243.831,17.57Z" transform="translate(-230.921 -16.771)"/><path class="a" d="M288.051,15.2h.432a5.754,5.754,0,0,1,4.169,1.93,5.849,5.849,0,0,1,1.525,3.9v.1a5.883,5.883,0,0,1-5.866,5.866h-.1a6.091,6.091,0,0,1-2.705-.675v6.531a.045.045,0,0,1-.037.051h-3.039a.045.045,0,0,1-.051-.037V20.871a5.833,5.833,0,0,1,5.671-5.671Zm.182,3.147h-.111a2.707,2.707,0,0,0-2.3,1.451,3.235,3.235,0,0,0-.32,1.3,2.743,2.743,0,0,0,1.6,2.5,2.842,2.842,0,0,0,1.106.246h.121a2.673,2.673,0,0,0,2.4-1.5,2.573,2.573,0,0,0,.293-1.194v-.121a2.674,2.674,0,0,0-2.594-2.678H288.3a.018.018,0,0,1-.024-.017v-.007Z" transform="translate(-256.5 -15.2)"/><path class="a" d="M326.431,15.2h.432a5.749,5.749,0,0,1,4.169,1.93,5.849,5.849,0,0,1,1.525,3.9v.1a5.883,5.883,0,0,1-5.866,5.866h-.1a6.091,6.091,0,0,1-2.705-.675v6.531a.045.045,0,0,1-.037.051h-3.039a.045.045,0,0,1-.051-.037V20.871a5.833,5.833,0,0,1,5.671-5.671Zm.186,3.147H326.5a2.707,2.707,0,0,0-2.3,1.451,3.234,3.234,0,0,0-.32,1.3,2.743,2.743,0,0,0,1.6,2.5,2.842,2.842,0,0,0,1.106.246h.121a2.673,2.673,0,0,0,2.4-1.5,2.573,2.573,0,0,0,.293-1.194v-.121a2.674,2.674,0,0,0-2.594-2.678h-.121a.018.018,0,0,1-.024-.017v-.007Z" transform="translate(-281.933 -15.2)"/><path class="a" d="M209.273,20.207h6.686V17.38h-6.686a3.611,3.611,0,0,0,0,7.222h4.412a.784.784,0,0,1,0,1.569H205.66V29h8.022a3.611,3.611,0,1,0,.024-7.222h-4.433a.784.784,0,0,1,0-1.569Z" transform="translate(-205.66 -16.645)"/></g><path class="b" d="M4.267,0H11.84c.034.01.051.024.051.051V3.076a.045.045,0,0,1-.037.051H4.8A1.5,1.5,0,0,0,3.272,3.9a1.784,1.784,0,0,0-.148.6A1.372,1.372,0,0,0,4.193,5.846a2.007,2.007,0,0,0,.283.024H8.265A5.942,5.942,0,0,1,13.615,8.9a5.677,5.677,0,0,1,.725,2.547v.675a5.813,5.813,0,0,1-5.546,5.546H.051A.051.051,0,0,1,0,17.622V14.583q.01-.051.051-.051H8.386a2.77,2.77,0,0,0,2.729-1.967,4.979,4.979,0,0,0,.1-.776A2.7,2.7,0,0,0,9.59,9.27a2.733,2.733,0,0,0-1.255-.26H4.453A4.469,4.469,0,0,1,.7,6.946,4.405,4.405,0,0,1,0,4.672v-.4a4.379,4.379,0,0,1,1.194-2.84A4.408,4.408,0,0,1,4.267,0Z" transform="translate(0 0)"/><path class="b" d="M51.267,17.35h.418a5.774,5.774,0,0,1,4.132,1.882,5.792,5.792,0,0,1,4.119-1.882h.432a5.779,5.779,0,0,1,4.105,1.855,6.19,6.19,0,0,1,1.39,2.5,5,5,0,0,1,.186,1.2v6.2a.045.045,0,0,1-.037.051H62.973q-.061,0-.061-.051V23.3A2.741,2.741,0,0,0,60.969,20.6a2.667,2.667,0,0,0-.651-.1H60.2a.02.02,0,0,1-.024-.017v-.007l-.051.024H60a2.749,2.749,0,0,0-2.287,1.427,3.265,3.265,0,0,0-.32,1.451v5.728a.045.045,0,0,1-.037.051H54.29a.045.045,0,0,1-.051-.037v-5.94a2.725,2.725,0,0,0-1.5-2.4,2.688,2.688,0,0,0-1.106-.283H51.51a.02.02,0,0,1-.024-.017v-.007l-.051.024h-.1a2.691,2.691,0,0,0-2.3,1.451,3.751,3.751,0,0,0-.331,1.855v5.3a.045.045,0,0,1-.037.051H45.631a.045.045,0,0,1-.051-.037V23.058a5.867,5.867,0,0,1,5.687-5.708Z" transform="translate(-30.204 -11.497)"/><path class="b" d="M115.37,17.46h.432a5.75,5.75,0,0,1,4.156,1.919,5.817,5.817,0,0,1,1.525,3.886v5.913a.045.045,0,0,1-.037.051H118.4a.045.045,0,0,1-.051-.037v-.641a5.87,5.87,0,0,1-2.719.678h-.111a5.8,5.8,0,0,1-3.96-1.6,5.714,5.714,0,0,1-1.845-4.082v-.432a5.828,5.828,0,0,1,5.66-5.657Zm.172,3.137h-.1a2.675,2.675,0,0,0-2.287,1.451,3.081,3.081,0,0,0-.331,1.292,2.773,2.773,0,0,0,2.692,2.756h.135a2.643,2.643,0,0,0,2.385-1.5,2.5,2.5,0,0,0,.307-1.194v-.135a2.714,2.714,0,0,0-2.594-2.668h-.121a.018.018,0,0,1-.024-.017v-.007Z" transform="translate(-72.701 -11.57)"/><path class="b" d="M154.038,16.84H157.7q.051.01.051.051v3.073a.045.045,0,0,1-.037.051h-2.942a3.064,3.064,0,0,0-2.311.688,2.336,2.336,0,0,0-.725.911,3.807,3.807,0,0,0-.283,1.72v5.434a.045.045,0,0,1-.037.051h-3.087a.045.045,0,0,1-.051-.037V22.595a5.931,5.931,0,0,1,5.758-5.755Z" transform="translate(-98.26 -11.159)"/><path class="b" d="M179.651.04h3.012c.034.01.051.024.051.051V5.92h3.663c.034.01.051.024.051.051V9.02a.045.045,0,0,1-.037.051h-3.677v2.237a3.23,3.23,0,0,0,.5,2.064,2.8,2.8,0,0,0,2.5,1.2h.665a.045.045,0,0,1,.051.037v3.026a.045.045,0,0,1-.037.051h-1.157a5.843,5.843,0,0,1-5.633-5.654V.087C179.607.057,179.624.04,179.651.04Z" transform="translate(-119.015 -0.027)"/><circle class="c" cx="3.879" cy="3.879" r="3.879" transform="translate(97.281 6.952)"/><path class="b" d="M295.795,24.61a1.9,1.9,0,0,0-.773.165.873.873,0,1,1-1.015,1.079,1.9,1.9,0,1,0,1.788-1.245Z" transform="translate(-194.75 -16.308)"/><circle class="c" cx="3.879" cy="3.879" r="3.879" transform="translate(110.113 6.952)"/><path class="b" d="M333.835,24.61a1.9,1.9,0,0,0-.772.165.873.873,0,1,1-1.015,1.079,1.9,1.9,0,1,0,1.788-1.245Z" transform="translate(-219.957 -16.308)"/></svg>